<?xml version="1.0" encoding="UTF-8"?>
<svg width="850" height="550" xmlns="http://www.w3.org/2000/svg">
  <rect width="850" height="550" fill="#f8f9fa"/>
  <text x="425" y="35" font-family="Arial" font-size="20" font-weight="bold" text-anchor="middle" fill="#2c3e50">Blue/Green Deployment</text>
  
  <rect x="40" y="200" width="100" height="70" fill="#34495e" stroke="#2c3e50" stroke-width="2" rx="5"/>
  <text x="90" y="230" font-family="Arial" font-size="12" font-weight="bold" text-anchor="middle" fill="white">Users</text>
  <text x="90" y="250" font-family="Arial" font-size="10" text-anchor="middle" fill="white">Browser</text>
  
  <rect x="180" y="180" width="120" height="110" fill="#9b59b6" stroke="#2c3e50" stroke-width="2" rx="5"/>
  <text x="240" y="210" font-family="Arial" font-size="11" font-weight="bold" text-anchor="middle" fill="white">Elastic</text>
  <text x="240" y="228" font-family="Arial" font-size="11" font-weight="bold" text-anchor="middle" fill="white">Beanstalk</text>
  <text x="240" y="250" font-family="Arial" font-size="9" text-anchor="middle" fill="white">URL Swap</text>
  <text x="240" y="275" font-family="Arial" font-size="8" text-anchor="middle" fill="white">app.elasticbeanstalk.com</text>
  
  <rect x="340" y="70" width="230" height="180" fill="#e3f2fd" stroke="#3498db" stroke-width="3" rx="8"/>
  <text x="455" y="95" font-family="Arial" font-size="14" font-weight="bold" text-anchor="middle" fill="#3498db">BLUE Environment</text>
  <text x="455" y="112" font-family="Arial" font-size="10" text-anchor="middle" fill="#3498db">(Production - v1)</text>
  
  <rect x="360" y="125" width="90" height="50" fill="#FF9900" stroke="#2c3e50" stroke-width="1" rx="3"/>
  <text x="405" y="147" font-family="Arial" font-size="9" font-weight="bold" text-anchor="middle" fill="white">Load</text>
  <text x="405" y="162" font-family="Arial" font-size="9" font-weight="bold" text-anchor="middle" fill="white">Balancer</text>
  
  <rect x="470" y="125" width="80" height="50" fill="#27ae60" stroke="#2c3e50" stroke-width="1" rx="3"/>
  <text x="510" y="147" font-family="Arial" font-size="9" font-weight="bold" text-anchor="middle" fill="white">Auto</text>
  <text x="510" y="162" font-family="Arial" font-size="9" font-weight="bold" text-anchor="middle" fill="white">Scaling</text>
  
  <rect x="370" y="190" width="55" height="40" fill="#3498db" rx="3"/>
  <text x="397" y="215" font-family="Arial" font-size="8" text-anchor="middle" fill="white">EC2</text>
  
  <rect x="435" y="190" width="55" height="40" fill="#3498db" rx="3"/>
  <text x="462" y="215" font-family="Arial" font-size="8" text-anchor="middle" fill="white">EC2</text>
  
  <rect x="500" y="190" width="55" height="40" fill="#3498db" rx="3"/>
  <text x="527" y="215" font-family="Arial" font-size="8" text-anchor="middle" fill="white">EC2</text>
  
  <rect x="340" y="270" width="230" height="180" fill="#e8f5e9" stroke="#27ae60" stroke-width="3" rx="8"/>
  <text x="455" y="295" font-family="Arial" font-size="14" font-weight="bold" text-anchor="middle" fill="#27ae60">GREEN Environment</text>
  <text x="455" y="312" font-family="Arial" font-size="10" text-anchor="middle" fill="#27ae60">(Staging - v2 New)</text>
  
  <rect x="360" y="325" width="90" height="50" fill="#FF9900" stroke="#2c3e50" stroke-width="1" rx="3"/>
  <text x="405" y="347" font-family="Arial" font-size="9" font-weight="bold" text-anchor="middle" fill="white">Load</text>
  <text x="405" y="362" font-family="Arial" font-size="9" font-weight="bold" text-anchor="middle" fill="white">Balancer</text>
  
  <rect x="470" y="325" width="80" height="50" fill="#27ae60" stroke="#2c3e50" stroke-width="1" rx="3"/>
  <text x="510" y="347" font-family="Arial" font-size="9" font-weight="bold" text-anchor="middle" fill="white">Auto</text>
  <text x="510" y="362" font-family="Arial" font-size="9" font-weight="bold" text-anchor="middle" fill="white">Scaling</text>
  
  <rect x="370" y="390" width="55" height="40" fill="#27ae60" rx="3"/>
  <text x="397" y="415" font-family="Arial" font-size="8" text-anchor="middle" fill="white">EC2</text>
  
  <rect x="435" y="390" width="55" height="40" fill="#27ae60" rx="3"/>
  <text x="462" y="415" font-family="Arial" font-size="8" text-anchor="middle" fill="white">EC2</text>
  
  <rect x="500" y="390" width="55" height="40" fill="#27ae60" rx="3"/>
  <text x="527" y="415" font-family="Arial" font-size="8" text-anchor="middle" fill="white">EC2</text>
  
  <line x1="140" y1="235" x2="175" y2="235" stroke="#2c3e50" stroke-width="2"/>
  <polygon points="175,230 185,235 175,240" fill="#2c3e50"/>
  
  <line x1="300" y1="200" x2="335" y2="160" stroke="#3498db" stroke-width="2"/>
  <polygon points="330,155 340,160 330,165" fill="#3498db"/>
  
  <line x1="300" y1="270" x2="335" y2="360" stroke="#27ae60" stroke-width="2" stroke-dasharray="5,3"/>
  <polygon points="330,355 340,360 330,365" fill="#27ae60"/>
  
  <rect x="600" y="120" width="220" height="330" fill="#ecf0f1" stroke="#bdc3c7" rx="5"/>
  <text x="710" y="145" font-family="Arial" font-size="12" font-weight="bold" text-anchor="middle" fill="#2c3e50">Deployment Flow</text>
  
  <text x="620" y="175" font-family="Arial" font-size="9" fill="#2c3e50">1. Deploy v1 to Blue env</text>
  <text x="620" y="205" font-family="Arial" font-size="9" fill="#2c3e50">2. Blue serves production</text>
  <text x="620" y="235" font-family="Arial" font-size="9" fill="#2c3e50">3. Clone Blue to Green</text>
  <text x="620" y="265" font-family="Arial" font-size="9" fill="#2c3e50">4. Deploy v2 to Green</text>
  <text x="620" y="295" font-family="Arial" font-size="9" fill="#2c3e50">5. Test Green environment</text>
  <text x="620" y="325" font-family="Arial" font-size="9" fill="#27ae60" font-weight="bold">6. URL Swap Blue-Green</text>
  <text x="620" y="355" font-family="Arial" font-size="9" fill="#2c3e50">7. Green now serves prod</text>
  <text x="620" y="385" font-family="Arial" font-size="9" fill="#2c3e50">8. Blue available for rollback</text>
  <text x="620" y="420" font-family="Arial" font-size="9" fill="#e74c3c">Zero Downtime Achieved!</text>
  
  <text x="240" y="320" font-family="Arial" font-size="10" font-weight="bold" text-anchor="middle" fill="#e74c3c">SWAP</text>
</svg>
