<?xml version="1.0" encoding="UTF-8"?>
<svg width="900" height="650" xmlns="http://www.w3.org/2000/svg">
  <rect width="900" height="650" fill="#f8f9fa"/>
  <text x="450" y="35" font-family="Arial" font-size="18" font-weight="bold" text-anchor="middle" fill="#2c3e50">Cognito Authentication</text>
  
  <rect x="30" y="80" width="100" height="70" fill="#34495e" stroke="#2c3e50" stroke-width="2" rx="5"/>
  <text x="80" y="110" font-family="Arial" font-size="10" font-weight="bold" text-anchor="middle" fill="white">User</text>
  <text x="80" y="128" font-family="Arial" font-size="8" text-anchor="middle" fill="white">Browser</text>
  
  <rect x="170" y="80" width="120" height="70" fill="#3498db" stroke="#2c3e50" stroke-width="2" rx="5"/>
  <text x="230" y="110" font-family="Arial" font-size="10" font-weight="bold" text-anchor="middle" fill="white">CloudFront</text>
  <text x="230" y="128" font-family="Arial" font-size="8" text-anchor="middle" fill="white">CDN</text>
  
  <rect x="330" y="80" width="120" height="70" fill="#f39c12" stroke="#2c3e50" stroke-width="2" rx="5"/>
  <text x="390" y="110" font-family="Arial" font-size="10" font-weight="bold" text-anchor="middle" fill="white">Cloud9</text>
  <text x="390" y="128" font-family="Arial" font-size="8" text-anchor="middle" fill="white">Node.js App</text>
  
  <rect x="490" y="80" width="120" height="70" fill="#27ae60" stroke="#2c3e50" stroke-width="2" rx="5"/>
  <text x="550" y="110" font-family="Arial" font-size="10" font-weight="bold" text-anchor="middle" fill="white">S3 Bucket</text>
  <text x="550" y="128" font-family="Arial" font-size="8" text-anchor="middle" fill="white">Static Site</text>
  
  <rect x="650" y="80" width="120" height="70" fill="#9b59b6" stroke="#2c3e50" stroke-width="2" rx="5"/>
  <text x="710" y="110" font-family="Arial" font-size="10" font-weight="bold" text-anchor="middle" fill="white">DynamoDB</text>
  <text x="710" y="128" font-family="Arial" font-size="8" text-anchor="middle" fill="white">Sightings</text>
  
  <rect x="100" y="200" width="700" height="380" fill="#fff3e0" stroke="#FF9900" stroke-width="2" rx="8"/>
  <text x="450" y="225" font-family="Arial" font-size="12" font-weight="bold" text-anchor="middle" fill="#FF9900">Amazon Cognito</text>
  
  <rect x="130" y="250" width="160" height="100" fill="#3498db" stroke="#2c3e50" stroke-width="2" rx="5"/>
  <text x="210" y="280" font-family="Arial" font-size="11" font-weight="bold" text-anchor="middle" fill="white">User Pool</text>
  <text x="210" y="300" font-family="Arial" font-size="8" text-anchor="middle" fill="white">Authentication</text>
  <text x="210" y="318" font-family="Arial" font-size="7" text-anchor="middle" fill="white">Sign-up/Sign-in</text>
  <text x="210" y="333" font-family="Arial" font-size="7" text-anchor="middle" fill="white">Access Tokens</text>
  
  <rect x="330" y="250" width="160" height="100" fill="#e91e63" stroke="#2c3e50" stroke-width="2" rx="5"/>
  <text x="410" y="280" font-family="Arial" font-size="11" font-weight="bold" text-anchor="middle" fill="white">Managed UI</text>
  <text x="410" y="300" font-family="Arial" font-size="8" text-anchor="middle" fill="white">Hosted Login</text>
  <text x="410" y="318" font-family="Arial" font-size="7" text-anchor="middle" fill="white">Token Exchange</text>
  <text x="410" y="333" font-family="Arial" font-size="7" text-anchor="middle" fill="white">Local Storage</text>
  
  <rect x="530" y="250" width="160" height="100" fill="#9b59b6" stroke="#2c3e50" stroke-width="2" rx="5"/>
  <text x="610" y="280" font-family="Arial" font-size="11" font-weight="bold" text-anchor="middle" fill="white">Identity Pool</text>
  <text x="610" y="300" font-family="Arial" font-size="8" text-anchor="middle" fill="white">Authorization</text>
  <text x="610" y="318" font-family="Arial" font-size="7" text-anchor="middle" fill="white">Temp Credentials</text>
  <text x="610" y="333" font-family="Arial" font-size="7" text-anchor="middle" fill="white">IAM Roles</text>
  
  <rect x="130" y="390" width="560" height="160" fill="#e8f5e9" stroke="#27ae60" stroke-width="1" rx="5"/>
  <text x="410" y="415" font-family="Arial" font-size="11" font-weight="bold" text-anchor="middle" fill="#27ae60">Protected Pages</text>
  
  <rect x="150" y="435" width="100" height="50" fill="#3498db" rx="3"/>
  <text x="200" y="455" font-family="Arial" font-size="9" font-weight="bold" text-anchor="middle" fill="white">Sightings</text>
  <text x="200" y="472" font-family="Arial" font-size="7" text-anchor="middle" fill="white">View Data</text>
  
  <rect x="280" y="435" width="100" height="50" fill="#3498db" rx="3"/>
  <text x="330" y="455" font-family="Arial" font-size="9" font-weight="bold" text-anchor="middle" fill="white">Reporting</text>
  <text x="330" y="472" font-family="Arial" font-size="7" text-anchor="middle" fill="white">Add Data</text>
  
  <rect x="410" y="435" width="100" height="50" fill="#e91e63" rx="3"/>
  <text x="460" y="455" font-family="Arial" font-size="9" font-weight="bold" text-anchor="middle" fill="white">Admin</text>
  <text x="460" y="472" font-family="Arial" font-size="7" text-anchor="middle" fill="white">DynamoDB</text>
  
  <rect x="540" y="435" width="100" height="50" fill="#1abc9c" rx="3"/>
  <text x="590" y="455" font-family="Arial" font-size="9" font-weight="bold" text-anchor="middle" fill="white">Home/Edu</text>
  <text x="590" y="472" font-family="Arial" font-size="7" text-anchor="middle" fill="white">Public</text>
  
  <line x1="80" y1="150" x2="230" y2="150" stroke="#2c3e50" stroke-width="2"/>
  <line x1="230" y1="150" x2="390" y2="150" stroke="#2c3e50" stroke-width="2"/>
  <line x1="390" y1="150" x2="550" y2="150" stroke="#2c3e50" stroke-width="2"/>
  <line x1="550" y1="150" x2="710" y2="150" stroke="#2c3e50" stroke-width="2"/>
  
  <line x1="390" y1="150" x2="410" y2="245" stroke="#3498db" stroke-width="2"/>
  <polygon points="405,240 410,250 415,240" fill="#3498db"/>
  
  <line x1="210" y1="350" x2="210" y2="430" stroke="#3498db" stroke-width="2"/>
  <polygon points="205,425 210,435 215,425" fill="#3498db"/>
  
  <line x1="410" y1="350" x2="460" y2="430" stroke="#e91e63" stroke-width="2"/>
  <polygon points="455,425 465,435 460,425" fill="#e91e63"/>
  
  <line x1="610" y1="350" x2="710" y2="150" stroke="#9b59b6" stroke-width="2" stroke-dasharray="5,3"/>
</svg>
