<?xml version="1.0" encoding="UTF-8"?>
<svg width="900" height="600" xmlns="http://www.w3.org/2000/svg">
  <rect width="900" height="600" fill="#f8f9fa"/>
  <text x="450" y="35" font-family="Arial" font-size="18" font-weight="bold" text-anchor="middle" fill="#2c3e50">RDS Migration</text>
  
  <rect x="30" y="80" width="350" height="450" fill="#fff3e0" stroke="#FF9900" stroke-width="2" rx="8"/>
  <text x="205" y="105" font-family="Arial" font-size="12" font-weight="bold" text-anchor="middle" fill="#FF9900">Before: Self-Managed</text>
  
  <rect x="60" y="130" width="140" height="80" fill="#3498db" stroke="#2c3e50" stroke-width="2" rx="5"/>
  <text x="130" y="160" font-family="Arial" font-size="10" font-weight="bold" text-anchor="middle" fill="white">EC2 Instance</text>
  <text x="130" y="178" font-family="Arial" font-size="8" text-anchor="middle" fill="white">CafeServer</text>
  <text x="130" y="193" font-family="Arial" font-size="7" text-anchor="middle" fill="white">Web App</text>
  
  <rect x="60" y="240" width="140" height="80" fill="#e74c3c" stroke="#2c3e50" stroke-width="2" rx="5"/>
  <text x="130" y="270" font-family="Arial" font-size="10" font-weight="bold" text-anchor="middle" fill="white">MariaDB</text>
  <text x="130" y="288" font-family="Arial" font-size="8" text-anchor="middle" fill="white">Local Database</text>
  <text x="130" y="303" font-family="Arial" font-size="7" text-anchor="middle" fill="white">cafe_db</text>
  
  <rect x="60" y="350" width="140" height="60" fill="#9b59b6" stroke="#2c3e50" stroke-width="1" rx="3"/>
  <text x="130" y="375" font-family="Arial" font-size="9" font-weight="bold" text-anchor="middle" fill="white">mysqldump</text>
  <text x="130" y="393" font-family="Arial" font-size="7" text-anchor="middle" fill="white">CafeDbDump.sql</text>
  
  <rect x="60" y="430" width="140" height="60" fill="#1abc9c" stroke="#2c3e50" stroke-width="1" rx="3"/>
  <text x="130" y="455" font-family="Arial" font-size="9" font-weight="bold" text-anchor="middle" fill="white">Session Manager</text>
  <text x="130" y="473" font-family="Arial" font-size="7" text-anchor="middle" fill="white">Secure Access</text>
  
  <line x1="130" y1="210" x2="130" y2="235" stroke="#2c3e50" stroke-width="2"/>
  <polygon points="125,230 130,240 135,230" fill="#2c3e50"/>
  
  <line x1="130" y1="320" x2="130" y2="345" stroke="#9b59b6" stroke-width="2"/>
  <polygon points="125,340 130,350 135,340" fill="#9b59b6"/>
  
  <rect x="520" y="80" width="350" height="450" fill="#e8f5e9" stroke="#27ae60" stroke-width="2" rx="8"/>
  <text x="695" y="105" font-family="Arial" font-size="12" font-weight="bold" text-anchor="middle" fill="#27ae60">After: RDS Managed</text>
  
  <rect x="550" y="130" width="140" height="80" fill="#3498db" stroke="#2c3e50" stroke-width="2" rx="5"/>
  <text x="620" y="160" font-family="Arial" font-size="10" font-weight="bold" text-anchor="middle" fill="white">EC2 Instance</text>
  <text x="620" y="178" font-family="Arial" font-size="8" text-anchor="middle" fill="white">CafeServer</text>
  <text x="620" y="193" font-family="Arial" font-size="7" text-anchor="middle" fill="white">Web App</text>
  
  <rect x="550" y="240" width="140" height="80" fill="#27ae60" stroke="#2c3e50" stroke-width="2" rx="5"/>
  <text x="620" y="270" font-family="Arial" font-size="10" font-weight="bold" text-anchor="middle" fill="white">RDS MariaDB</text>
  <text x="620" y="288" font-family="Arial" font-size="8" text-anchor="middle" fill="white">Managed Service</text>
  <text x="620" y="303" font-family="Arial" font-size="7" text-anchor="middle" fill="white">db.t3.micro</text>
  
  <rect x="550" y="350" width="140" height="60" fill="#f39c12" stroke="#2c3e50" stroke-width="1" rx="3"/>
  <text x="620" y="375" font-family="Arial" font-size="9" font-weight="bold" text-anchor="middle" fill="white">Secrets Manager</text>
  <text x="620" y="393" font-family="Arial" font-size="7" text-anchor="middle" fill="white">Credentials</text>
  
  <rect x="550" y="430" width="140" height="60" fill="#e91e63" stroke="#2c3e50" stroke-width="1" rx="3"/>
  <text x="620" y="455" font-family="Arial" font-size="9" font-weight="bold" text-anchor="middle" fill="white">Security Group</text>
  <text x="620" y="473" font-family="Arial" font-size="7" text-anchor="middle" fill="white">Port 3306</text>
  
  <line x1="620" y1="210" x2="620" y2="235" stroke="#2c3e50" stroke-width="2"/>
  <polygon points="615,230 620,240 625,230" fill="#2c3e50"/>
  
  <line x1="200" y1="280" x2="545" y2="280" stroke="#9b59b6" stroke-width="2" stroke-dasharray="5,3"/>
  <polygon points="540,275 550,280 540,285" fill="#9b59b6"/>
  <text x="372" y="270" font-family="Arial" font-size="8" fill="#9b59b6">Import Data</text>
  
  <rect x="30" y="550" width="840" height="40" fill="#ecf0f1" stroke="#bdc3c7" rx="5"/>
  <text x="450" y="572" font-family="Arial" font-size="10" text-anchor="middle" fill="#2c3e50">Benefits: Automated backups, Multi-AZ, Patching, Monitoring, Scalability</text>
</svg>
