<?xml version="1.0" encoding="UTF-8"?>
<svg width="850" height="550" xmlns="http://www.w3.org/2000/svg">
  <rect width="850" height="550" fill="#f8f9fa"/>
  <text x="425" y="40" font-family="Arial" font-size="22" font-weight="bold" text-anchor="middle" fill="#2c3e50">AWS SAM GitHub Actions CI/CD Pipeline</text>
  <rect x="40" y="200" width="120" height="80" fill="#6c5ce7" stroke="#2c3e50" stroke-width="2" rx="5"/>
  <text x="100" y="235" font-family="Arial" font-size="14" font-weight="bold" text-anchor="middle" fill="white">Developer</text>
  <text x="100" y="255" font-family="Arial" font-size="11" text-anchor="middle" fill="white">SAM CLI Docker</text>
  <rect x="200" y="170" width="140" height="140" fill="#ecf0f1" stroke="#2c3e50" stroke-width="2" rx="5"/>
  <text x="270" y="195" font-family="Arial" font-size="14" font-weight="bold" text-anchor="middle" fill="#2c3e50">GitHub</text>
  <rect x="215" y="205" width="110" height="40" fill="#24292e" rx="3"/>
  <text x="270" y="230" font-family="Arial" font-size="11" font-weight="bold" text-anchor="middle" fill="white">Repository</text>
  <rect x="215" y="255" width="110" height="40" fill="#2088FF" rx="3"/>
  <text x="270" y="280" font-family="Arial" font-size="11" font-weight="bold" text-anchor="middle" fill="white">GitHub Actions</text>
  <rect x="380" y="200" width="130" height="80" fill="#FF9900" stroke="#2c3e50" stroke-width="2" rx="5"/>
  <text x="445" y="230" font-family="Arial" font-size="14" font-weight="bold" text-anchor="middle" fill="white">AWS SAM</text>
  <text x="445" y="250" font-family="Arial" font-size="11" text-anchor="middle" fill="white">CloudFormation</text>
  <rect x="550" y="80" width="270" height="150" fill="#e8f4fc" stroke="#3498db" stroke-width="2" rx="5"/>
  <text x="685" y="105" font-family="Arial" font-size="14" font-weight="bold" text-anchor="middle" fill="#3498db">DEV Environment</text>
  <rect x="565" y="120" width="70" height="50" fill="#3498db" rx="3"/>
  <text x="600" y="150" font-family="Arial" font-size="10" text-anchor="middle" fill="white">S3 Artifacts</text>
  <rect x="650" y="120" width="70" height="50" fill="#f39c12" rx="3"/>
  <text x="685" y="150" font-family="Arial" font-size="10" text-anchor="middle" fill="white">Lambda</text>
  <rect x="735" y="120" width="70" height="50" fill="#9b59b6" rx="3"/>
  <text x="770" y="150" font-family="Arial" font-size="10" text-anchor="middle" fill="white">API Gateway</text>
  <rect x="550" y="250" width="270" height="150" fill="#e8f8e8" stroke="#27ae60" stroke-width="2" rx="5"/>
  <text x="685" y="275" font-family="Arial" font-size="14" font-weight="bold" text-anchor="middle" fill="#27ae60">PROD Environment</text>
  <rect x="565" y="290" width="70" height="50" fill="#27ae60" rx="3"/>
  <text x="600" y="320" font-family="Arial" font-size="10" text-anchor="middle" fill="white">S3 Artifacts</text>
  <rect x="650" y="290" width="70" height="50" fill="#f39c12" rx="3"/>
  <text x="685" y="320" font-family="Arial" font-size="10" text-anchor="middle" fill="white">Lambda</text>
  <rect x="735" y="290" width="70" height="50" fill="#9b59b6" rx="3"/>
  <text x="770" y="320" font-family="Arial" font-size="10" text-anchor="middle" fill="white">API Gateway</text>
  <rect x="380" y="330" width="130" height="60" fill="#e74c3c" stroke="#2c3e50" stroke-width="2" rx="5"/>
  <text x="445" y="365" font-family="Arial" font-size="12" font-weight="bold" text-anchor="middle" fill="white">IAM Roles</text>
  <line x1="160" y1="240" x2="195" y2="240" stroke="#2c3e50" stroke-width="2"/>
  <line x1="340" y1="240" x2="375" y2="240" stroke="#2c3e50" stroke-width="2"/>
  <line x1="510" y1="220" x2="545" y2="155" stroke="#3498db" stroke-width="2"/>
  <line x1="510" y1="260" x2="545" y2="325" stroke="#27ae60" stroke-width="2"/>
  <rect x="40" y="440" width="780" height="90" fill="#ecf0f1" stroke="#bdc3c7" rx="5"/>
  <text x="425" y="470" font-family="Arial" font-size="12" font-weight="bold" text-anchor="middle" fill="#2c3e50">Pipeline: Developer pushes to GitHub - GitHub Actions triggers - SAM deploys to Dev then Prod</text>
  <text x="425" y="500" font-family="Arial" font-size="11" text-anchor="middle" fill="#2c3e50">Multi-stage CI/CD with Infrastructure as Code</text>
</svg>
